<svg width="50" height="50" viewBox="0 0 50 50" fill="none" xmlns="http://www.w3.org/2000/svg">
<path d="M48.2086 26.7914L38.5102 17.093C38.293 16.8745 38.0347 16.7012 37.7501 16.5834C37.4655 16.4655 37.1604 16.4053 36.8523 16.4063H23.4375V17.9688H27.3438V29.6875H28.9062V17.9688H36.8523C36.9551 17.9687 37.0568 17.9889 37.1517 18.0281C37.2466 18.0674 37.3328 18.125 37.4055 18.1977L38.7391 19.5313H35.1562C34.7418 19.5313 34.3444 19.6959 34.0514 19.9889C33.7584 20.2819 33.5938 20.6794 33.5938 21.0938V28.125C33.5938 28.5394 33.7584 28.9368 34.0514 29.2299C34.3444 29.5229 34.7418 29.6875 35.1562 29.6875H46.875V35.9375C46.875 36.1447 46.7927 36.3434 46.6462 36.4899C46.4997 36.6365 46.3009 36.7188 46.0938 36.7188H44.4688C44.282 35.4181 43.6325 34.2284 42.6395 33.3678C41.6465 32.5072 40.3765 32.0335 39.0625 32.0335C37.7485 32.0335 36.4785 32.5072 35.4855 33.3678C34.4925 34.2284 33.843 35.4181 33.6562 36.7188H22.5938C22.407 35.4181 21.7575 34.2284 20.7645 33.3678C19.7715 32.5072 18.5015 32.0335 17.1875 32.0335C15.8735 32.0335 14.6035 32.5072 13.6105 33.3678C12.6175 34.2284 11.968 35.4181 11.7812 36.7188H10.1562C9.94905 36.7188 9.75034 36.6365 9.60382 36.4899C9.45731 36.3434 9.375 36.1447 9.375 35.9375V28.9063H7.8125V35.9375C7.8125 36.5591 8.05943 37.1553 8.49897 37.5948C8.93851 38.0343 9.53465 38.2813 10.1562 38.2813H11.7812C11.9518 39.4692 12.5095 40.5676 13.368 41.4063H1.5625V42.9688H39.0625C40.3762 42.9662 41.6451 42.4913 42.6377 41.6308C43.6302 40.7702 44.2801 39.5813 44.4688 38.2813H46.0938C46.7154 38.2813 47.3115 38.0343 47.751 37.5948C48.1906 37.1553 48.4375 36.5591 48.4375 35.9375V27.3438C48.4375 27.1366 48.3551 26.9379 48.2086 26.7914ZM13.2812 37.5C13.2812 36.7274 13.5103 35.9722 13.9396 35.3298C14.3688 34.6874 14.9789 34.1868 15.6926 33.8911C16.4064 33.5955 17.1918 33.5181 17.9496 33.6688C18.7073 33.8195 19.4033 34.1916 19.9496 34.7379C20.4959 35.2842 20.868 35.9802 21.0187 36.7379C21.1694 37.4957 21.0921 38.2811 20.7964 38.9949C20.5007 39.7086 20.0001 40.3187 19.3577 40.7479C18.7153 41.1772 17.9601 41.4063 17.1875 41.4063C16.1519 41.405 15.159 40.9931 14.4267 40.2608C13.6944 39.5285 13.2825 38.5356 13.2812 37.5ZM21.007 41.4063C21.8655 40.5676 22.4232 39.4692 22.5938 38.2813H33.6562C33.8268 39.4692 34.3845 40.5676 35.243 41.4063H21.007ZM39.0625 41.4063C38.2899 41.4063 37.5347 41.1772 36.8923 40.7479C36.2499 40.3187 35.7493 39.7086 35.4536 38.9949C35.1579 38.2811 35.0806 37.4957 35.2313 36.7379C35.382 35.9802 35.7541 35.2842 36.3004 34.7379C36.8467 34.1916 37.5427 33.8195 38.3004 33.6688C39.0582 33.5181 39.8436 33.5955 40.5574 33.8911C41.2711 34.1868 41.8812 34.6874 42.3104 35.3298C42.7397 35.9722 42.9688 36.7274 42.9688 37.5C42.9675 38.5356 42.5556 39.5285 41.8233 40.2608C41.091 40.9931 40.0981 41.405 39.0625 41.4063ZM35.1562 28.125V21.0938H40.3016L46.875 27.6672V28.125H35.1562Z" fill="#FFC582"/>
<path d="M17.9688 36.7188H16.4062V38.2812H17.9688V36.7188Z" fill="#FFC582"/>
<path d="M39.8438 36.7188H38.2812V38.2812H39.8438V36.7188Z" fill="#FFC582"/>
<path d="M5.46875 34.375H1.5625V35.9375H5.46875V34.375Z" fill="#FFC582"/>
<path d="M5.46875 31.25H3.125V32.8125H5.46875V31.25Z" fill="#FFC582"/>
<path d="M5.46875 28.125H3.90625V29.6875H5.46875V28.125Z" fill="#FFC582"/>
<path d="M11.7188 27.3437C13.7275 27.3437 15.6911 26.7481 17.3613 25.6321C19.0314 24.5161 20.3332 22.9299 21.1019 21.0741C21.8706 19.2183 22.0717 17.1762 21.6798 15.2061C21.288 13.236 20.3207 11.4263 18.9003 10.0059C17.4799 8.58557 15.6703 7.61828 13.7001 7.2264C11.73 6.83452 9.68793 7.03565 7.83212 7.80435C5.97631 8.57305 4.39012 9.87481 3.27414 11.545C2.15815 13.2152 1.5625 15.1788 1.5625 17.1875C1.5656 19.8802 2.63663 22.4616 4.54062 24.3656C6.44462 26.2696 9.0261 27.3406 11.7188 27.3437ZM11.7188 8.59375C13.4184 8.59375 15.0799 9.09777 16.4932 10.0421C17.9064 10.9864 19.0079 12.3285 19.6583 13.8988C20.3088 15.4691 20.479 17.197 20.1474 18.8641C19.8158 20.5311 18.9973 22.0623 17.7955 23.2642C16.5936 24.4661 15.0623 25.2845 13.3953 25.6161C11.7283 25.9477 10.0004 25.7775 8.43006 25.1271C6.85976 24.4766 5.5176 23.3752 4.57331 21.9619C3.62901 20.5487 3.125 18.8872 3.125 17.1875C3.12769 14.9091 4.03396 12.7248 5.64502 11.1138C7.25608 9.50271 9.44037 8.59644 11.7188 8.59375Z" fill="#FFC582"/>
<path d="M11.7188 24.2188C11.9259 24.2187 12.1246 24.1364 12.2711 23.9898C12.7742 23.4867 17.1875 18.9766 17.1875 15.625C17.1875 14.1746 16.6113 12.7836 15.5857 11.758C14.5602 10.7324 13.1692 10.1562 11.7188 10.1562C10.2683 10.1562 8.87735 10.7324 7.85176 11.758C6.82617 12.7836 6.25 14.1746 6.25 15.625C6.25 18.9766 10.6633 23.4867 11.1664 23.9898C11.3129 24.1364 11.5116 24.2187 11.7188 24.2188ZM11.7188 11.7188C12.7544 11.72 13.7472 12.1319 14.4795 12.8642C15.2118 13.5965 15.6238 14.5894 15.625 15.625C15.625 17.6297 13.1664 20.7273 11.7188 22.3055C10.2711 20.7273 7.8125 17.6297 7.8125 15.625C7.81374 14.5894 8.22569 13.5965 8.95798 12.8642C9.69028 12.1319 10.6831 11.72 11.7188 11.7188Z" fill="#FFC582"/>
<path d="M14.0625 15.625C14.0625 15.1615 13.925 14.7083 13.6675 14.3229C13.41 13.9375 13.0439 13.6371 12.6157 13.4597C12.1874 13.2823 11.7162 13.2359 11.2615 13.3263C10.8069 13.4167 10.3892 13.6399 10.0615 13.9677C9.73369 14.2955 9.51047 14.7131 9.42004 15.1678C9.3296 15.6224 9.37602 16.0936 9.55341 16.5219C9.7308 16.9502 10.0312 17.3162 10.4166 17.5738C10.8021 17.8313 11.2552 17.9687 11.7187 17.9687C12.3404 17.9687 12.9365 17.7218 13.376 17.2823C13.8156 16.8427 14.0625 16.2466 14.0625 15.625ZM10.9375 15.625C10.9375 15.4705 10.9833 15.3194 11.0692 15.191C11.155 15.0625 11.277 14.9624 11.4198 14.9032C11.5625 14.8441 11.7196 14.8286 11.8712 14.8588C12.0227 14.8889 12.1619 14.9633 12.2712 15.0726C12.3804 15.1818 12.4548 15.321 12.485 15.4726C12.5151 15.6241 12.4997 15.7812 12.4405 15.924C12.3814 16.0667 12.2813 16.1887 12.1528 16.2746C12.0243 16.3604 11.8733 16.4062 11.7187 16.4062C11.5115 16.4062 11.3128 16.3239 11.1663 16.1774C11.0198 16.0309 10.9375 15.8322 10.9375 15.625Z" fill="#FFC582"/>
<path d="M34.375 31.25H31.25V32.8125H34.375V31.25Z" fill="#FFC582"/>
</svg>
