<svg width="52" height="52" viewBox="0 0 52 52" fill="none" xmlns="http://www.w3.org/2000/svg">
<path d="M13.4062 13C15.4225 13 17.0625 14.5576 17.0625 16.4714C17.0614 17.2875 16.7594 18.0746 16.2143 18.6819C16.7579 19.2946 17.0595 20.0845 17.0625 20.9036C17.0625 22.8174 15.4225 24.375 13.4062 24.375C11.39 24.375 9.75 22.8174 9.75 20.9036C9.75109 20.0875 10.0531 19.3004 10.5982 18.6931C10.0546 18.0804 9.75297 17.2905 9.75 16.4714C9.75 14.5576 11.39 13 13.4062 13ZM11.8177 19.7562C11.5335 20.0709 11.3758 20.4796 11.375 20.9036C11.375 21.9217 12.2863 22.75 13.4062 22.75C14.5262 22.75 15.4375 21.9217 15.4375 20.9036C15.4365 20.4795 15.2787 20.0707 14.9944 19.7559C14.7353 19.4603 14.5925 19.0806 14.5925 18.6876C14.5925 18.2945 14.7353 17.9148 14.9944 17.6192C15.2788 17.3045 15.4367 16.8956 15.4375 16.4714C15.4375 15.4533 14.5262 14.625 13.4062 14.625C12.2863 14.625 11.375 15.4533 11.375 16.4714C11.376 16.8955 11.5338 17.3043 11.8181 17.6191C12.0772 17.9148 12.2201 18.2946 12.22 18.6877C12.2199 19.0809 12.0769 19.4606 11.8177 19.7562Z" fill="#FFC582"/>
<path d="M43.0625 21.8344V25.1876C43.0625 25.4031 42.9769 25.6097 42.8245 25.7621C42.6721 25.9145 42.4655 26.0001 42.25 26.0001H39C38.7845 26.0001 38.5778 25.9145 38.4255 25.7621C38.2731 25.6097 38.1875 25.4031 38.1875 25.1876V21.9376H36.5625V25.1876C36.5625 25.4031 36.4769 25.6097 36.3245 25.7621C36.1721 25.9145 35.9655 26.0001 35.75 26.0001H32.5C32.2845 26.0001 32.0778 25.9145 31.9255 25.7621C31.7731 25.6097 31.6875 25.4031 31.6875 25.1876V21.9376H20.1962C20.0088 22.9992 19.5735 24.0016 18.9256 24.8631L17.6256 23.8871C18.2398 23.0714 18.6011 22.0934 18.6645 21.0743C18.6775 20.868 18.7685 20.6744 18.9192 20.5329C19.0699 20.3913 19.2688 20.3126 19.4755 20.3126H32.5C32.7155 20.3126 32.9221 20.3982 33.0745 20.5506C33.2269 20.7029 33.3125 20.9096 33.3125 21.1251V24.3751H34.9375V21.1251C34.9375 20.9096 35.0231 20.7029 35.1755 20.5506C35.3278 20.3982 35.5345 20.3126 35.75 20.3126H39C39.2155 20.3126 39.4221 20.3982 39.5745 20.5506C39.7269 20.7029 39.8125 20.9096 39.8125 21.1251V24.3751H41.4375V21.1251C41.4375 20.9096 41.5231 20.7029 41.6755 20.5506C41.8278 20.3982 42.0345 20.3126 42.25 20.3126C42.681 20.3126 43.0943 20.1414 43.399 19.8366C43.7038 19.5319 43.875 19.1186 43.875 18.6876C43.875 18.2566 43.7038 17.8433 43.399 17.5385C43.0943 17.2338 42.681 17.0626 42.25 17.0626H19.4758C19.2692 17.0626 19.0704 16.984 18.9198 16.8426C18.7691 16.7013 18.678 16.5078 18.6648 16.3017C18.5746 14.935 17.9563 13.657 16.9408 12.7379C15.9253 11.8188 14.5921 11.3307 13.2232 11.3767C11.8543 11.4228 10.557 11.9994 9.60558 12.9847C8.65414 13.97 8.12319 15.2867 8.12499 16.6563V20.7188C8.12309 22.0495 8.6263 23.3313 9.53295 24.3052L8.34203 25.411C7.156 24.1367 6.49768 22.4597 6.49999 20.7188V16.6563C6.49886 14.9311 7.14397 13.2679 8.3082 11.9946C9.47242 10.7214 11.0713 9.93035 12.7898 9.77742C14.5083 9.6245 16.2218 10.1208 17.5925 11.1684C18.9633 12.2161 19.8919 13.7392 20.1955 15.4376H42.25C43.041 15.4376 43.8049 15.7261 44.3985 16.249C44.992 16.7719 45.3745 17.4933 45.4741 18.2781C45.5738 19.0628 45.3839 19.857 44.9399 20.5117C44.4959 21.1664 43.8284 21.6367 43.0625 21.8344Z" fill="#FFC582"/>
<path d="M8.50564 26.8157C8.5097 26.8131 8.51245 26.8095 8.51651 26.807C10.5484 25.5693 12.9226 25.0135 15.2927 25.2206C17.6628 25.4277 19.9047 26.3869 21.6911 27.9583L22.2426 28.4407H31.2812C31.9132 28.4407 32.5343 28.6046 33.084 28.9162C33.6338 29.2279 34.0933 29.6767 34.4179 30.2189C34.7425 30.761 34.9211 31.3781 34.9361 32.0099C34.9512 32.6416 34.8022 33.2665 34.5038 33.8235L44.4419 28.593C45.3919 28.0931 46.5016 27.9911 47.5269 28.3094C48.5521 28.6276 49.409 29.3402 49.9089 30.2902C50.4088 31.2402 50.5108 32.3499 50.1925 33.3752C49.8743 34.4004 49.1617 35.2572 48.2117 35.7571L36.2797 42.0342C34.996 42.7084 33.5679 43.0613 32.1179 43.0625H1.62498V41.4375H8.12498V28.4407H1.62498V26.8157H8.50564ZM35.5231 40.5965L47.4551 34.3194C47.7387 34.1724 47.9904 33.9708 48.1958 33.7262C48.4012 33.4815 48.5561 33.1986 48.6518 32.8939C48.7475 32.5891 48.7819 32.2684 48.7532 31.9503C48.7244 31.6322 48.6331 31.3228 48.4844 31.0401C48.3356 30.7574 48.1325 30.5069 47.8866 30.3031C47.6407 30.0992 47.3569 29.9459 47.0515 29.8521C46.7462 29.7583 46.4253 29.7258 46.1073 29.7565C45.7894 29.7872 45.4806 29.8804 45.1989 30.0309L34.5035 35.6595C34.3869 35.7212 34.2569 35.7534 34.125 35.7532H21.9375C21.722 35.7532 21.5153 35.6676 21.363 35.5152C21.2106 35.3628 21.125 35.1562 21.125 34.9407C21.125 34.7252 21.2106 34.5185 21.363 34.3662C21.5153 34.2138 21.722 34.1282 21.9375 34.1282H31.2812C31.82 34.1282 32.3366 33.9142 32.7175 33.5332C33.0985 33.1523 33.3125 32.6357 33.3125 32.0969C33.3125 31.5582 33.0985 31.0416 32.7175 30.6606C32.3366 30.2797 31.82 30.0657 31.2812 30.0657H21.9375C21.7408 30.0657 21.5508 29.9944 21.4027 29.865L20.6211 29.1818C19.1522 27.889 17.3211 27.0795 15.3763 26.863C13.4315 26.6466 11.4672 27.0337 9.74998 27.9718V41.4375H32.1179C33.3042 41.4363 34.4726 41.1477 35.5231 40.5965Z" fill="#FFC582"/>
<path d="M6.5 37.375C6.5 37.8571 6.35704 38.3284 6.08921 38.7292C5.82137 39.1301 5.44068 39.4425 4.99529 39.627C4.54989 39.8115 4.05979 39.8597 3.58696 39.7657C3.11413 39.6716 2.67981 39.4395 2.33892 39.0986C1.99803 38.7577 1.76588 38.3234 1.67183 37.8505C1.57778 37.3777 1.62605 36.8876 1.81054 36.4422C1.99503 35.9968 2.30745 35.6161 2.70829 35.3483C3.10914 35.0805 3.5804 34.9375 4.0625 34.9375C4.70874 34.9382 5.32831 35.1953 5.78527 35.6522C6.24223 36.1092 6.49927 36.7288 6.5 37.375ZM3.25 37.375C3.25 37.5357 3.29765 37.6928 3.38693 37.8264C3.4762 37.96 3.6031 38.0642 3.75157 38.1257C3.90003 38.1872 4.0634 38.2032 4.22101 38.1719C4.37862 38.1405 4.52339 38.0632 4.63702 37.9495C4.75065 37.8359 4.82804 37.6911 4.85939 37.5335C4.89074 37.3759 4.87464 37.2125 4.81315 37.0641C4.75165 36.9156 4.64751 36.7887 4.5139 36.6994C4.38028 36.6102 4.22319 36.5625 4.0625 36.5625C3.84707 36.5627 3.64054 36.6484 3.48821 36.8007C3.33588 36.953 3.25021 37.1596 3.25 37.375Z" fill="#FFC582"/>
</svg>
