<svg width="21" height="21" viewBox="0 0 21 21" fill="none" xmlns="http://www.w3.org/2000/svg">
<path d="M18.9644 8.68069H18.9124V7.40718C18.9124 3.31631 15.5962 0 11.5053 0C7.41434 0 4.09808 3.31631 4.09808 7.40718V8.68069H3.78622C2.64264 8.68069 1.75899 9.69428 1.75899 10.8639V14.1126C1.73019 15.2462 2.62583 16.1885 3.7594 16.2173C3.76836 16.2176 3.77726 16.2177 3.78622 16.2178H5.70947C5.98189 16.205 6.19236 15.9737 6.17953 15.7013C6.17908 15.6915 6.17834 15.6817 6.17729 15.672V9.30441C6.17729 8.99255 5.99537 8.68064 5.70947 8.68064H5.13769V7.40713C5.13769 3.89044 7.98857 1.03956 11.5053 1.03956C15.0219 1.03956 17.8728 3.89044 17.8728 7.40713V8.68064H17.301C17.0151 8.68064 16.8332 8.9925 16.8332 9.30441V15.672C16.8042 15.9432 17.0005 16.1865 17.2717 16.2155C17.2814 16.2166 17.2912 16.2173 17.301 16.2178H17.8988L17.8468 16.2957C17.0669 17.3322 15.8432 17.9392 14.5461 17.9331C14.2621 16.5407 12.9031 15.6421 11.5108 15.9261C10.3201 16.169 9.46162 17.2117 9.45201 18.4269C9.46624 19.8521 10.6257 21 12.051 20.9999C12.7566 20.9885 13.4291 20.6989 13.9223 20.1942C14.2551 19.8534 14.4731 19.4173 14.5461 18.9467C16.1704 18.9528 17.7022 18.1917 18.6785 16.8935L19.1723 16.1657C20.2899 16.0878 20.9916 15.386 20.9916 14.3724V11.1236C20.9916 10.0062 20.16 8.68069 18.9644 8.68069ZM5.13769 15.1782H3.78622C3.22657 15.1646 2.78392 14.6999 2.79755 14.1402C2.7978 14.131 2.79815 14.1218 2.7986 14.1126V10.8638C2.7986 10.2661 3.21443 9.72025 3.78622 9.72025H5.13769V15.1782ZM13.1686 19.4666C12.8806 19.7789 12.4759 19.9577 12.0511 19.9604C11.2055 19.947 10.5193 19.2722 10.4917 18.427C10.4913 17.5801 11.1776 16.8933 12.0245 16.8929C12.8714 16.8926 13.5582 17.5788 13.5585 18.4257C13.5585 18.4261 13.5585 18.4266 13.5585 18.427C13.5801 18.8128 13.4387 19.1901 13.1686 19.4666ZM19.952 14.3725C19.952 15.0742 19.2763 15.1782 18.9644 15.1782H17.8728V9.7203H18.9644C19.5362 9.7203 19.952 10.526 19.952 11.1237V14.3725Z" fill="#FFC582"/>
</svg>
