<svg width="21" height="21" viewBox="0 0 21 21" fill="none" xmlns="http://www.w3.org/2000/svg">
<path d="M18.8999 1.64062H2.10013C1.61293 1.64108 1.14582 1.83482 0.801318 2.17932C0.456817 2.52382 0.263076 2.99094 0.262619 3.47813V14.4012C0.263141 14.8884 0.456903 15.3554 0.801389 15.6999C1.14588 16.0444 1.61295 16.2382 2.10013 16.2387H8.21432L10.1398 19.1652C10.179 19.2249 10.2325 19.2739 10.2954 19.3078C10.3583 19.3417 10.4286 19.3594 10.5 19.3594C10.5714 19.3594 10.6417 19.3417 10.7046 19.3078C10.7675 19.2739 10.8209 19.2249 10.8602 19.1652L12.7857 16.2387H18.8999C19.387 16.2382 19.8541 16.0444 20.1986 15.6999C20.5431 15.3554 20.7369 14.8884 20.7374 14.4012V3.47813C20.7369 2.99094 20.5432 2.52382 20.1987 2.17932C19.8542 1.83482 19.3871 1.64108 18.8999 1.64062ZM19.875 14.4012C19.8747 14.6597 19.7719 14.9076 19.5891 15.0904C19.4062 15.2732 19.1584 15.376 18.8999 15.3764H12.5531C12.4817 15.3764 12.4114 15.3941 12.3486 15.428C12.2858 15.4619 12.2323 15.5108 12.1931 15.5705L10.5 18.1437L8.80686 15.5705C8.76766 15.5108 8.71423 15.4619 8.6514 15.428C8.58857 15.3941 8.51829 15.3764 8.4469 15.3764H2.10013C1.8416 15.376 1.59375 15.2732 1.41094 15.0904C1.22812 14.9076 1.12528 14.6597 1.12495 14.4012V3.47813C1.12528 3.21962 1.22813 2.9718 1.41095 2.78903C1.59377 2.60626 1.84162 2.50347 2.10013 2.5032H18.8999C19.1584 2.50347 19.4062 2.60626 19.589 2.78903C19.7719 2.9718 19.8747 3.21962 19.875 3.47813V14.4012Z" fill="#FFC582"/>
<path d="M14.6757 7.16067L12.3215 6.82239L11.2655 4.68307C11.195 4.54024 11.0859 4.42 10.9507 4.33592C10.8154 4.25183 10.6593 4.20728 10.5 4.20728C10.3407 4.20728 10.1846 4.25183 10.0493 4.33592C9.91405 4.42 9.80499 4.54024 9.73449 4.68307L8.68515 6.81771L6.32433 7.16067C6.16669 7.18361 6.0186 7.25019 5.89682 7.35289C5.77503 7.45558 5.6844 7.59029 5.63516 7.74179C5.58593 7.89329 5.58005 8.05555 5.6182 8.21021C5.65634 8.36488 5.73699 8.5058 5.85103 8.61703L7.55722 10.2744L7.15365 12.6256C7.12669 12.7827 7.14421 12.9441 7.20422 13.0917C7.26424 13.2393 7.36436 13.3671 7.49325 13.4608C7.62215 13.5544 7.77468 13.6101 7.93358 13.6216C8.09249 13.6331 8.25144 13.5998 8.39245 13.5257L10.4958 12.4155L12.6075 13.5257C12.7485 13.5998 12.9075 13.6331 13.0664 13.6216C13.2253 13.6101 13.3778 13.5544 13.5067 13.4608C13.6356 13.3671 13.7357 13.2393 13.7958 13.0917C13.8558 12.9441 13.8733 12.7827 13.8463 12.6256L13.4405 10.2821L15.149 8.61678C15.2629 8.50554 15.3435 8.36464 15.3816 8.21001C15.4197 8.05538 15.4138 7.89317 15.3646 7.74172C15.3154 7.59026 15.2248 7.45559 15.103 7.35291C14.9813 7.25024 14.8332 7.18365 14.6757 7.16067ZM12.8386 9.66439C12.7393 9.76096 12.665 9.88023 12.6221 10.0119C12.5792 10.1436 12.5689 10.2838 12.5923 10.4203L13.0081 12.7626L10.8964 11.6524C10.7739 11.588 10.6376 11.5543 10.4993 11.5543C10.3609 11.5543 10.2246 11.588 10.1021 11.6524L8.00292 12.7715L8.40625 10.42C8.42954 10.2836 8.41928 10.1434 8.37636 10.0118C8.33343 9.88015 8.25913 9.76093 8.15986 9.66439L6.44678 8.01364L8.8076 7.67068C8.94472 7.65075 9.07491 7.5977 9.18691 7.51614C9.29892 7.43457 9.38936 7.32694 9.45041 7.20256L10.4899 5.06175V5.06323L11.5456 7.20231C11.6068 7.32668 11.6973 7.4343 11.8093 7.51586C11.9213 7.59743 12.0515 7.65048 12.1887 7.67043L14.5446 7.99861L12.8386 9.66439Z" fill="#FFC582"/>
</svg>
