<svg width="14" height="14" viewBox="0 0 14 14" fill="none" xmlns="http://www.w3.org/2000/svg">
<path d="M7 14C10.866 14 14 10.866 14 7C14 3.13401 10.866 0 7 0C3.13401 0 0 3.13401 0 7C0 10.866 3.13401 14 7 14Z" fill="#039BE5"/>
<path d="M3.20311 6.84821L9.95228 4.24596C10.2655 4.13279 10.5391 4.32238 10.4376 4.79604L10.4382 4.79546L9.28903 10.2094C9.20386 10.5932 8.97578 10.6865 8.6567 10.5057L6.9067 9.21596L6.06261 10.0291C5.96928 10.1225 5.89053 10.2012 5.7097 10.2012L5.83395 8.42029L9.07728 5.49021C9.21845 5.36596 9.04578 5.29596 8.8597 5.41963L4.85161 7.94313L3.12378 7.40413C2.7487 7.28513 2.74053 7.02904 3.20311 6.84821Z" fill="white"/>
</svg>
