<svg width="16" height="16" viewBox="0 0 16 16" fill="none" xmlns="http://www.w3.org/2000/svg">
<g clip-path="url(#clip0)">
<path d="M9.6002 0H6.39979C3.31151 0 0.799072 2.51244 0.799072 5.60072V8.00103C0.799072 10.1692 2.04951 12.1368 3.99948 13.0623V15.7353C3.99948 15.9674 4.28982 16.0888 4.45476 15.9239L6.77692 13.6018H9.60017C12.6884 13.6018 15.2009 11.0893 15.2009 8.00103V5.60072C15.2009 2.51244 12.6884 0 9.6002 0Z" fill="#665CAC"/>
<path d="M4.79957 13.0623C2.8496 12.1367 1.59917 10.1692 1.59917 8.001V5.60069C1.59917 2.51244 4.11163 0 7.19988 0H6.39979C3.31151 0 0.799072 2.51244 0.799072 5.60072V8.00103C0.799072 10.1692 2.04951 12.1368 3.99948 13.0623V15.7353C3.99948 15.9674 4.28982 16.0888 4.45476 15.9239L4.79957 15.5791V13.0623Z" fill="#523494"/>
<path d="M12.0265 9.94071L11.7867 8.64177C11.7669 8.53446 11.6838 8.45005 11.5768 8.42865L9.69092 8.05149C9.60332 8.03405 9.51307 8.0614 9.44998 8.12443L8.68382 8.89062C7.39295 8.31221 6.67651 7.59421 6.04614 6.24793L6.80982 5.48427C6.87286 5.42121 6.90023 5.33077 6.88276 5.24333L6.50561 3.35746C6.4842 3.25049 6.39979 3.1673 6.29248 3.14749L4.99354 2.90774C4.95798 2.90121 4.92136 2.9019 4.88604 2.90993C4.54307 2.98783 4.23014 3.16065 3.98104 3.4098C3.54973 3.84112 3.38489 4.47049 3.50439 5.2299C3.70498 6.50508 4.32973 8.27971 5.48239 9.43699L5.49814 9.45262C6.65451 10.6045 8.42917 11.2293 9.70442 11.4299C9.86507 11.4552 10.0198 11.4677 10.1682 11.4677C10.7211 11.4677 11.1844 11.2933 11.5246 10.9532C11.7737 10.7041 11.9465 10.3911 12.0244 10.0482C12.0323 10.0129 12.0331 9.97634 12.0265 9.94071Z" fill="white"/>
<path d="M6.54898 5.74495L6.80973 5.48417L6.81001 5.48389L6.54895 5.74492L6.54898 5.74495Z" fill="#E5E5E5"/>
<path d="M9.44995 8.1239L9.18665 8.38721L9.18669 8.38725L9.45 8.12394L9.44995 8.1239Z" fill="#E5E5E5"/>
<path d="M10.671 10.9646C10.5226 10.9646 10.3679 10.9521 10.2072 10.9268C8.93201 10.7262 7.15736 10.1014 6.00095 8.94951L5.9852 8.93388C4.83255 7.7766 4.2078 6.00198 4.0072 4.72679C3.91067 4.11326 3.99992 3.58466 4.2652 3.17676C4.16361 3.24454 4.06826 3.32229 3.98092 3.40963C3.54961 3.84095 3.38476 4.47032 3.50426 5.22973C3.70486 6.50491 4.32961 8.27954 5.48226 9.43682L5.49801 9.45245C6.65439 10.6043 8.42905 11.2291 9.70429 11.4297C9.86495 11.455 10.0197 11.4676 10.168 11.4676C10.721 11.4676 11.1843 11.2932 11.5245 10.953C11.6118 10.8657 11.6895 10.7704 11.7573 10.6688C11.4561 10.8647 11.0893 10.9646 10.671 10.9646Z" fill="#E5E5E5"/>
<path d="M8.53341 4.53394C8.38613 4.53394 8.26672 4.65334 8.26672 4.80062C8.26672 4.9479 8.38613 5.06731 8.53341 5.06731C9.12166 5.06731 9.60022 5.54587 9.60022 6.13412C9.60022 6.27944 9.7216 6.40081 9.86691 6.40081C10.0122 6.40081 10.1336 6.27944 10.1336 6.13412C10.1336 5.25175 9.41579 4.53394 8.53341 4.53394Z" fill="white"/>
<path d="M8.53344 3.46729C8.43479 3.46729 8.33523 3.47275 8.23748 3.48354C8.09107 3.49969 7.98548 3.63147 8.00163 3.77791C8.01779 3.92435 8.14985 4.02966 8.29601 4.01375C8.37438 4.0051 8.45426 4.00069 8.53344 4.00069C9.70991 4.00069 10.667 4.95782 10.667 6.13429C10.667 6.2135 10.6626 6.29338 10.654 6.37175C10.638 6.51616 10.7453 6.65022 10.8898 6.66613C11.0343 6.68204 11.1682 6.57475 11.1842 6.43029C11.195 6.33254 11.2004 6.23297 11.2004 6.13429C11.2004 4.66372 10.004 3.46729 8.53344 3.46729Z" fill="white"/>
<path d="M8.53392 2.40039C8.43861 2.40039 8.34208 2.40402 8.24708 2.41123C8.1002 2.42236 7.99014 2.55048 8.00126 2.69733C8.01236 2.8442 8.14092 2.95427 8.28736 2.94314C8.36901 2.93692 8.45198 2.9338 8.53392 2.9338C10.2986 2.9338 11.7343 4.36948 11.7343 6.1342C11.7343 6.38389 11.7055 6.63245 11.6487 6.87295C11.6161 7.01077 11.701 7.15402 11.8376 7.19145C11.9814 7.23083 12.1335 7.14067 12.1678 6.99564C12.2341 6.71498 12.2677 6.42517 12.2677 6.1342C12.2677 4.07536 10.5928 2.40039 8.53392 2.40039Z" fill="white"/>
</g>
<defs>
<clipPath id="clip0">
<rect width="16" height="16" fill="white"/>
</clipPath>
</defs>
</svg>
