<svg width="14" height="14" viewBox="0 0 14 14" fill="none" xmlns="http://www.w3.org/2000/svg">
<path d="M7.00175 0H6.99825C3.13863 0 0 3.1395 0 7C0 8.53125 0.4935 9.9505 1.33263 11.1029L0.46025 13.7034L3.15088 12.8433C4.25775 13.5765 5.57812 14 7.00175 14C10.8614 14 14 10.8596 14 7C14 3.14038 10.8614 0 7.00175 0Z" fill="#4CAF50"/>
<path d="M11.0749 9.88491C10.906 10.3618 10.2357 10.7573 9.70111 10.8728C9.33536 10.9507 8.85761 11.0128 7.24936 10.346C5.19223 9.49378 3.86748 7.40341 3.76423 7.26778C3.66536 7.13216 2.93298 6.16091 2.93298 5.15641C2.93298 4.15191 3.44311 3.66279 3.64873 3.45279C3.81761 3.28041 4.09673 3.20166 4.36448 3.20166C4.45111 3.20166 4.52898 3.20604 4.59898 3.20954C4.80461 3.21829 4.90786 3.23054 5.04348 3.55516C5.21236 3.96204 5.62361 4.96653 5.67261 5.06978C5.72248 5.17303 5.77236 5.31304 5.70236 5.44866C5.63673 5.58866 5.57898 5.65078 5.47573 5.76978C5.37248 5.88878 5.27448 5.97978 5.17123 6.10753C5.07673 6.21866 4.96998 6.33766 5.08898 6.54328C5.20798 6.74453 5.61923 7.41566 6.22473 7.95466C7.00611 8.65028 7.63961 8.87253 7.86623 8.96703C8.03511 9.03703 8.23636 9.02041 8.35973 8.88916C8.51636 8.72028 8.70973 8.44028 8.90661 8.16466C9.04661 7.96691 9.22336 7.94241 9.40886 8.01241C9.59786 8.07803 10.598 8.57241 10.8036 8.67478C11.0092 8.77803 11.1449 8.82703 11.1947 8.91366C11.2437 9.00028 11.2437 9.40716 11.0749 9.88491Z" fill="#FAFAFA"/>
</svg>
