<svg width="40" height="18" viewBox="0 0 40 18" fill="none" xmlns="http://www.w3.org/2000/svg">
<path d="M39.7637 8.88C39.7637 11.44 38.9837 13.56 37.4237 15.24C35.9037 16.92 33.8837 17.76 31.3637 17.76C29.9237 17.76 28.4437 17.4 26.9237 16.68C25.4437 15.92 24.2637 15.18 23.3837 14.46C22.5437 13.74 21.4237 12.7 20.0237 11.34C19.6637 11.62 19.0037 12.2 18.0437 13.08C17.0837 13.92 16.3437 14.54 15.8237 14.94C15.3437 15.3 14.6637 15.76 13.7837 16.32C12.9437 16.84 12.1037 17.22 11.2637 17.46C10.4237 17.66 9.54367 17.76 8.62367 17.76C6.14367 17.76 4.12367 16.94 2.56367 15.3C1.00367 13.62 0.223672 11.54 0.223672 9.06C0.223672 6.54 0.983672 4.44 2.50367 2.76C4.02367 1.04 6.02367 0.179999 8.50367 0.179999C9.62367 0.179999 10.6837 0.359999 11.6837 0.719999C12.7237 1.04 13.8237 1.64 14.9837 2.52C16.1437 3.4 16.9437 4.04 17.3837 4.44C17.8637 4.84 18.7437 5.66 20.0237 6.9C20.2237 6.7 20.6637 6.28 21.3437 5.64C22.0637 4.96 22.5637 4.5 22.8437 4.26C23.1237 3.98 23.5837 3.56 24.2237 3C24.8637 2.44 25.4037 2.04 25.8437 1.8C26.3237 1.56 26.8637 1.28 27.4637 0.96C28.1037 0.639999 28.7237 0.419999 29.3237 0.299999C29.9637 0.179999 30.6037 0.119998 31.2437 0.119998C33.7637 0.119998 35.8037 0.959999 37.3637 2.64C38.9637 4.28 39.7637 6.36 39.7637 8.88ZM36.3437 9.06C36.3437 7.46 35.9037 6.14 35.0237 5.1C34.1437 4.06 32.9237 3.54 31.3637 3.54C31.0037 3.54 30.6237 3.58 30.2237 3.66C29.8637 3.7 29.4837 3.82 29.0837 4.02C28.7237 4.18 28.3837 4.34 28.0637 4.5C27.7437 4.66 27.3637 4.9 26.9237 5.22C26.5237 5.5 26.2037 5.72 25.9637 5.88C25.7237 6.04 25.3837 6.32 24.9437 6.72C24.5037 7.12 24.2037 7.4 24.0437 7.56C23.8837 7.68 23.5637 7.96 23.0837 8.4C22.6437 8.8 22.3837 9.04 22.3037 9.12C23.6237 10.28 24.5637 11.1 25.1237 11.58C25.7237 12.06 26.6637 12.64 27.9437 13.32C29.2237 13.96 30.4237 14.28 31.5437 14.28C33.0237 14.28 34.1837 13.8 35.0237 12.84C35.9037 11.84 36.3437 10.58 36.3437 9.06ZM17.7437 9.06C17.6237 8.98 17.2637 8.68 16.6637 8.16C16.0637 7.64 15.6437 7.28 15.4037 7.08C15.1637 6.88 14.7437 6.56 14.1437 6.12C13.5837 5.64 13.1037 5.3 12.7037 5.1C12.3437 4.86 11.9037 4.62 11.3837 4.38C10.8637 4.1 10.3637 3.9 9.88367 3.78C9.40367 3.66 8.92367 3.6 8.44367 3.6C6.96367 3.6 5.78367 4.14 4.90367 5.22C4.06367 6.26 3.64367 7.52 3.64367 9C3.64367 10.56 4.08367 11.84 4.96367 12.84C5.88367 13.8 7.12367 14.28 8.68367 14.28C11.1637 14.28 14.1837 12.54 17.7437 9.06Z" fill="white"/>
</svg>
