<svg width="31" height="31" viewBox="0 0 31 31" fill="none" xmlns="http://www.w3.org/2000/svg">
<path d="M15 10C11.6916 10 9 12.6916 9 16C9 19.3084 11.6916 22 15 22C16.0551 22 17.0925 21.7224 18.0007 21.1969L17.25 19.8983C16.5696 20.292 15.7914 20.5 15 20.5C12.5186 20.5 10.5 18.4814 10.5 16C10.5 13.5186 12.5186 11.5 15 11.5C17.4814 11.5 19.5 13.5186 19.5 16V16.6533C19.5 17.144 19.1847 17.5 18.75 17.5C18.3365 17.5 18 17.1634 18 16.75V13.75H16.9632C16.4356 13.2891 15.754 13 15 13C13.3458 13 12 14.3458 12 16C12 17.6542 13.3458 19 15 19C15.7877 19 16.4999 18.6885 17.0358 18.1901C17.4488 18.681 18.0597 19 18.75 19C20.0116 19 21 17.9691 21 16.6533V16C21 12.6916 18.3084 10 15 10V10ZM15 17.5C14.1727 17.5 13.5 16.8273 13.5 16C13.5 15.1727 14.1727 14.5 15 14.5C15.8273 14.5 16.5 15.1727 16.5 16C16.5 16.8273 15.8273 17.5 15 17.5Z" fill="#EB3F57"/>
<circle cx="15.5" cy="15.5" r="15.25" stroke="#777684" stroke-width="0.5"/>
</svg>
