<svg width="33" height="33" viewBox="0 0 33 33" fill="none" xmlns="http://www.w3.org/2000/svg">
<circle cx="16.5" cy="16.5" r="16.25" stroke="white" stroke-opacity="0.3" stroke-width="0.5"/>
<path d="M20.2895 18.9258C19.7343 18.9258 19.1905 18.8391 18.6752 18.669C18.4236 18.5824 18.138 18.6492 17.9727 18.8178L16.951 19.5894C15.7786 18.9637 15.0283 18.2138 14.4111 17.05L15.1618 16.0524C15.3508 15.8634 15.4186 15.5868 15.3376 15.3277C15.1661 14.809 15.079 14.2647 15.079 13.7105C15.079 13.3188 14.7602 13 14.3684 13H12.7105C12.3188 13 12 13.3188 12 13.7105C12 18.2811 15.7189 22 20.2895 22C20.6812 22 21 21.6812 21 21.2895V19.6363C21 19.2446 20.6812 18.9258 20.2895 18.9258Z" fill="#EB3F57"/>
</svg>
