<svg width="40" height="40" viewBox="0 0 40 40" fill="none" xmlns="http://www.w3.org/2000/svg">
<g filter="url(#filter0_d)">
<path d="M24.7917 5.83325C22.5732 5.83325 20.741 7.8938 20 8.8663C19.259 7.8938 17.4268 5.83325 15.2083 5.83325C12.3364 5.83325 10 8.47364 10 11.7187C10 13.4891 10.7027 15.1391 11.9328 16.2683C11.9507 16.2992 11.9727 16.3277 11.9983 16.3533L19.7058 24.0449C19.7872 24.1259 19.8934 24.1666 20 24.1666C20.1066 24.1666 20.2132 24.1259 20.2946 24.0445L28.2585 16.0835L28.3407 16.0038C28.4058 15.9423 28.4701 15.88 28.5421 15.8003C28.5722 15.7706 28.597 15.7372 28.6161 15.701C29.5093 14.6073 30 13.1965 30 11.7187C30 8.47364 27.6636 5.83325 24.7917 5.83325ZM27.9228 15.2323C27.9114 15.2457 27.9008 15.2599 27.8914 15.2746C27.8524 15.3193 27.8096 15.3588 27.7673 15.3991L19.9996 23.1611L12.6823 15.8585C12.6587 15.8121 12.6257 15.7698 12.5855 15.7344C11.4718 14.7619 10.8333 13.2983 10.8333 11.7187C10.8333 8.93302 12.7958 6.66661 15.2083 6.66661C17.5936 6.66661 19.6293 9.77778 19.6496 9.80911C19.8035 10.0467 20.1965 10.0467 20.3504 9.80911C20.3707 9.77778 22.4064 6.66661 24.7917 6.66661C27.2042 6.66661 29.1667 8.93306 29.1667 11.7187C29.1667 13.0313 28.7248 14.2793 27.9228 15.2323Z" fill="#EB3F57"/>
</g>
<defs>
<filter id="filter0_d" x="0" y="0" width="40" height="40" filterUnits="userSpaceOnUse" color-interpolation-filters="sRGB">
<feFlood flood-opacity="0" result="BackgroundImageFix"/>
<feColorMatrix in="SourceAlpha" type="matrix" values="0 0 0 0 0 0 0 0 0 0 0 0 0 0 0 0 0 0 127 0"/>
<feOffset dy="5"/>
<feGaussianBlur stdDeviation="5"/>
<feColorMatrix type="matrix" values="0 0 0 0 0.921569 0 0 0 0 0.247059 0 0 0 0 0.341176 0 0 0 1 0"/>
<feBlend mode="normal" in2="BackgroundImageFix" result="effect1_dropShadow"/>
<feBlend mode="normal" in="SourceGraphic" in2="effect1_dropShadow" result="shape"/>
</filter>
</defs>
</svg>
