<svg width="38" height="38" viewBox="0 0 38 38" fill="none" xmlns="http://www.w3.org/2000/svg">
<rect x="38" y="38" width="38" height="38" rx="5" transform="rotate(-180 38 38)" fill="#E43E56"/>
<path d="M29.1412 18.7779C29.3365 18.5826 29.3365 18.266 29.1412 18.0708L25.9592 14.8888C25.764 14.6935 25.4474 14.6935 25.2521 14.8888C25.0569 15.084 25.0569 15.4006 25.2521 15.5959L28.0806 18.4243L25.2521 21.2527C25.0569 21.448 25.0569 21.7646 25.2521 21.9599C25.4474 22.1551 25.764 22.1551 25.9592 21.9599L29.1412 18.7779ZM9.21191 18.9243L28.7877 18.9243L28.7877 17.9243L9.21191 17.9243L9.21191 18.9243Z" fill="white"/>
</svg>
