<svg width="38" height="38" viewBox="0 0 38 38" fill="none" xmlns="http://www.w3.org/2000/svg">
<rect x="0.5" y="-0.5" width="37" height="37" rx="4.5" transform="matrix(1 8.74228e-08 8.74228e-08 -1 4.37114e-08 37)" stroke="#E43E56"/>
<path d="M8.85877 18.7779C8.66351 18.5826 8.66351 18.266 8.85877 18.0708L12.0408 14.8888C12.236 14.6935 12.5526 14.6935 12.7479 14.8888C12.9431 15.084 12.9431 15.4006 12.7479 15.5959L9.91944 18.4243L12.7479 21.2527C12.9431 21.448 12.9431 21.7646 12.7479 21.9598C12.5526 22.1551 12.236 22.1551 12.0408 21.9598L8.85877 18.7779ZM28.7881 18.9243L9.21233 18.9243L9.21233 17.9243L28.7881 17.9243L28.7881 18.9243Z" fill="#E43E56"/>
</svg>
