<svg width="38" height="38" viewBox="0 0 38 38" fill="none" xmlns="http://www.w3.org/2000/svg">
<rect x="-0.5" y="0.5" width="37" height="37" rx="4.5" transform="matrix(-1 0 0 1 37 0)" stroke="#E43E56"/>
<path d="M29.1412 19.2221C29.3365 19.4174 29.3365 19.734 29.1412 19.9292L25.9592 23.1112C25.764 23.3065 25.4474 23.3065 25.2521 23.1112C25.0569 22.916 25.0569 22.5994 25.2521 22.4041L28.0806 19.5757L25.2521 16.7473C25.0569 16.552 25.0569 16.2354 25.2521 16.0401C25.4474 15.8449 25.764 15.8449 25.9592 16.0401L29.1412 19.2221ZM9.21191 19.0757L28.7877 19.0757V20.0757L9.21191 20.0757V19.0757Z" fill="#E43E56"/>
</svg>
