<svg width="45" height="45" viewBox="0 0 45 45" fill="none" xmlns="http://www.w3.org/2000/svg">
<path d="M22.5 33.75C22.3135 33.75 22.1347 33.6759 22.0028 33.5441C21.871 33.4122 21.7969 33.2334 21.7969 33.0469V31.6406C21.7969 31.4541 21.871 31.2753 22.0028 31.1434C22.1347 31.0116 22.3135 30.9375 22.5 30.9375C22.6865 30.9375 22.8653 31.0116 22.9972 31.1434C23.129 31.2753 23.2031 31.4541 23.2031 31.6406V33.0469C23.2031 33.2334 23.129 33.4122 22.9972 33.5441C22.8653 33.6759 22.6865 33.75 22.5 33.75Z" fill="#FFC582"/>
<path d="M38.9032 15.4687L43.4194 10.3071C43.4963 10.2193 43.5502 10.1137 43.5761 9.99985C43.6021 9.88601 43.5992 9.76751 43.5679 9.65504C43.5366 9.54256 43.4777 9.43966 43.3967 9.35562C43.3157 9.27158 43.215 9.20904 43.1037 9.17365L27.6349 4.25178C27.5046 4.21035 27.365 4.20784 27.2332 4.24456C27.1015 4.28128 26.9833 4.35562 26.8931 4.4585L22.5 9.47881L18.1069 4.4585C18.0169 4.35602 17.8991 4.28192 17.7678 4.24522C17.6364 4.20852 17.4973 4.2108 17.3672 4.25178L1.89845 9.17365C1.78719 9.20904 1.6865 9.27158 1.60545 9.35562C1.5244 9.43966 1.46556 9.54256 1.43423 9.65504C1.40291 9.76751 1.40008 9.88601 1.42601 9.99985C1.45194 10.1137 1.50581 10.2193 1.58275 10.3071L6.09681 15.4687L1.58064 20.6304C1.50373 20.7183 1.44994 20.8241 1.42415 20.938C1.39835 21.052 1.40136 21.1706 1.43291 21.2831C1.46446 21.3956 1.52354 21.4984 1.60482 21.5824C1.6861 21.6663 1.78702 21.7287 1.89845 21.7638L6.32814 23.1743V37.2656C6.3281 37.4099 6.37248 37.5508 6.45525 37.669C6.53801 37.7873 6.65517 37.8772 6.7908 37.9265L22.2596 43.5515C22.2647 43.5512 22.2699 43.5512 22.275 43.5515C22.4204 43.6041 22.5796 43.6041 22.725 43.5515C22.7302 43.5512 22.7353 43.5512 22.7405 43.5515L38.2092 37.9265C38.3449 37.8772 38.462 37.7873 38.5448 37.669C38.6276 37.5508 38.6719 37.4099 38.6719 37.2656V23.1743L43.1016 21.7638C43.2128 21.7284 43.3135 21.6659 43.3946 21.5818C43.4756 21.4978 43.5345 21.3949 43.5658 21.2824C43.5971 21.17 43.6 21.0514 43.574 20.9376C43.5481 20.8238 43.4942 20.7182 43.4173 20.6304L38.9032 15.4687ZM22.5 19.6523L9.35158 15.4687L21.7969 11.5087V17.5781C21.7969 17.7646 21.871 17.9434 22.0028 18.0753C22.1347 18.2072 22.3135 18.2812 22.5 18.2812C22.6865 18.2812 22.8653 18.2072 22.9972 18.0753C23.1291 17.9434 23.2031 17.7646 23.2031 17.5781V11.5087L35.6485 15.4687L22.5 19.6523ZM27.6476 5.73045L41.6546 10.1883L37.7431 14.6594L23.7361 10.2023L27.6476 5.73045ZM17.3524 5.73045L21.2639 10.2016L7.25697 14.6594L3.34549 10.1883L17.3524 5.73045ZM7.25697 16.2773L21.2639 20.7351L17.3524 25.2063L3.34549 20.7492L7.25697 16.2773ZM37.2656 36.7734L23.2031 41.8865V35.8594C23.2031 35.6729 23.1291 35.494 22.9972 35.3622C22.8653 35.2303 22.6865 35.1562 22.5 35.1562C22.3135 35.1562 22.1347 35.2303 22.0028 35.3622C21.871 35.494 21.7969 35.6729 21.7969 35.8594V41.8865L7.73439 36.7734V23.625L17.3672 26.6892C17.4356 26.7099 17.5067 26.7198 17.5781 26.7187C17.6783 26.7187 17.7772 26.6973 17.8684 26.656C17.9596 26.6146 18.0409 26.5543 18.1069 26.479L21.7969 22.2602V28.8281C21.7969 29.0146 21.871 29.1934 22.0028 29.3253C22.1347 29.4572 22.3135 29.5312 22.5 29.5312C22.6865 29.5312 22.8653 29.4572 22.9972 29.3253C23.1291 29.1934 23.2031 29.0146 23.2031 28.8281V22.2616L26.8931 26.4804C26.9593 26.5554 27.0406 26.6155 27.1318 26.6566C27.223 26.6977 27.3219 26.7189 27.4219 26.7187C27.4935 26.7187 27.5646 26.7075 27.6328 26.6857L37.2656 23.625V36.7734ZM27.6476 25.2063L23.7361 20.7351L37.7431 16.278L41.6546 20.7492L27.6476 25.2063Z" fill="#FFC582"/>
</svg>
