<svg width="43" height="43" viewBox="0 0 43 43" fill="none" xmlns="http://www.w3.org/2000/svg">
<g clip-path="url(#clip0)">
<path d="M3.7074 43H5.71362C6.08517 43 6.3855 42.6997 6.3855 42.3281V40.9703H36.6145V42.3281C36.6145 42.6997 36.9148 43 37.2864 43H39.302C39.6735 43 39.9739 42.6997 39.9739 42.3281V1.67969C39.9739 0.753844 39.2207 0 38.2942 0C37.3677 0 36.6145 0.753844 36.6145 1.67969V12.0964H34.6002V2.69287C34.6002 2.322 34.2999 2.021 33.9283 2.021H23.181C22.8095 2.021 22.5092 2.322 22.5092 2.69287V12.0958H20.4922V2.69287C20.4922 2.322 20.1919 2.021 19.8203 2.021H9.073C8.70145 2.021 8.40112 2.322 8.40112 2.69287V12.0958H6.3855V1.67969C6.3855 0.753844 5.63233 0 4.70581 0C3.77929 0 3.02612 0.753844 3.02612 1.67969L3.03553 42.3281C3.03553 42.6997 3.33586 43 3.7074 43ZM37.9582 1.67969C37.9582 1.49425 38.1094 1.34375 38.2942 1.34375C38.479 1.34375 38.6301 1.49425 38.6301 1.67969V41.6562H37.9582V1.67969ZM27.8815 3.36475H29.2266V4.042H27.8815V3.36475ZM23.8529 3.36475H26.5377V4.71387C26.5377 5.08475 26.838 5.38575 27.2096 5.38575H29.8984C30.27 5.38575 30.5703 5.08475 30.5703 4.71387V3.36475H33.2565V12.0958H23.8529V3.36475ZM13.7734 3.36475H15.1172V4.042H13.7734V3.36475ZM9.74487 3.36475H12.4297V4.71387C12.4297 5.08475 12.73 5.38575 13.1016 5.38575H15.7891C16.1606 5.38575 16.4609 5.08475 16.4609 4.71387V3.36475H19.1484V12.0958H9.74487V3.36475ZM6.3855 13.4395H9.073H19.8203H23.181H33.9283H36.6145V14.1114H6.3855V13.4395ZM6.3855 15.4551H36.6145V24.8419H34.6016V17.458C34.6016 17.0871 34.3012 16.7861 33.9297 16.7861H9.07031C8.69876 16.7861 8.39844 17.0871 8.39844 17.458V24.8426H6.3855V15.4551ZM19.8203 20.1455H23.1797C23.5512 20.1455 23.8516 19.8445 23.8516 19.4736V18.1299H33.2578V24.8426H9.74219V18.1299H19.1484V19.4736C19.1484 19.8445 19.4488 20.1455 19.8203 20.1455ZM20.4922 18.8018V18.1299H22.5078V18.8018H20.4922ZM6.3855 26.1863H9.07031H33.9297H36.6145V26.8595H6.3855V26.1863ZM6.3855 28.2033H36.6145V37.6095H34.6029V29.5538C34.6029 29.1822 34.3026 28.8819 33.931 28.8819H24.5234C24.1519 28.8819 23.8516 29.1822 23.8516 29.5538V37.6095H21.84V31.5707C21.84 31.1992 21.5396 30.8989 21.1681 30.8989H16.469C16.4663 30.8989 16.465 30.8975 16.4623 30.8975C16.4596 30.8975 16.4582 30.8989 16.4556 30.8989H13.7802C13.7775 30.8989 13.7761 30.8975 13.7734 30.8975C13.7707 30.8975 13.7694 30.8989 13.7667 30.8989H9.073C8.70145 30.8989 8.40112 31.1992 8.40112 31.5707V37.6095H6.3855V28.2033ZM27.8828 32.246H30.5717C30.9432 32.246 31.2435 31.9456 31.2435 31.5741V30.225H33.2592V37.6089H25.1953V30.225H27.2109V31.5741C27.2109 31.9456 27.5113 32.246 27.8828 32.246ZM28.5547 30.9022V30.225H29.8998V30.9022H28.5547ZM13.7734 34.2616H16.4623C16.8338 34.2616 17.1342 33.9613 17.1342 33.5897V32.2419H20.4962V37.6089H9.74487V32.2419H13.1016V33.5897C13.1016 33.9613 13.4019 34.2616 13.7734 34.2616ZM14.4453 32.9178V32.2419H15.7904V32.9178H14.4453ZM6.3855 38.9533H9.073H21.1681H24.5234H33.931H36.6145V39.6265H6.3855V38.9533ZM4.70581 1.34375C4.89058 1.34375 5.04175 1.49425 5.04175 1.67969V41.6562H4.37928L4.36987 1.67969C4.36987 1.49425 4.52104 1.34375 4.70581 1.34375Z" fill="#FFC582"/>
</g>
<defs>
<clipPath id="clip0">
<rect width="43" height="43" fill="white"/>
</clipPath>
</defs>
</svg>
