<svg width="47" height="47" viewBox="0 0 47 47" fill="none" xmlns="http://www.w3.org/2000/svg">
<path d="M44.929 28.7141C44.7916 28.339 44.5786 27.9962 44.3032 27.7069C44.0278 27.4176 43.6959 27.188 43.3281 27.0323V6.60937C43.3263 6.02561 43.0937 5.46625 42.6809 5.05346C42.2681 4.64067 41.7087 4.40799 41.125 4.40625H17.625C17.0412 4.40799 16.4818 4.64067 16.069 5.05346C15.6563 5.46625 15.4236 6.02561 15.4218 6.60937V27.1939C14.5886 27.5726 13.7921 28.0274 13.0425 28.5525L10.7365 30.1681L9.892 28.9637C9.77995 28.8054 9.61014 28.6973 9.41919 28.663C9.22823 28.6287 9.03143 28.6707 8.87122 28.7802L1.65231 33.8327C1.49342 33.946 1.38524 34.1171 1.35093 34.3093C1.31661 34.5014 1.35889 34.6994 1.46872 34.8608L9.05481 45.6855C9.166 45.845 9.33589 45.9539 9.52725 45.9883C9.7186 46.0227 9.9158 45.9798 10.0756 45.8691L17.2945 40.8166C17.4531 40.7029 17.561 40.5319 17.5953 40.3398C17.6296 40.1478 17.5875 39.9499 17.4781 39.7884L17.0595 39.1936C18.4765 38.2255 20.2175 37.8536 21.9064 38.1581L23.2136 38.3784C24.865 38.6718 26.5646 38.5249 28.1412 37.9525L43.1739 32.4814C43.5366 32.3494 43.8697 32.1473 44.1543 31.8865C44.4388 31.6257 44.6692 31.3113 44.8322 30.9615C44.9952 30.6116 45.0877 30.233 45.1043 29.8474C45.1209 29.4618 45.0613 29.0767 44.929 28.7141ZM33.0468 5.875H41.125C41.3197 5.875 41.5065 5.95237 41.6442 6.09009C41.782 6.22782 41.8593 6.41461 41.8593 6.60937V8.8125H33.0468V5.875ZM27.1718 5.875H31.5781V12.1833L29.8964 10.4942C29.7577 10.3566 29.5703 10.2794 29.375 10.2794C29.1796 10.2794 28.9922 10.3566 28.8536 10.4942L27.1718 12.1833V5.875ZM16.8906 6.60937C16.8906 6.41461 16.968 6.22782 17.1057 6.09009C17.2434 5.95237 17.4302 5.875 17.625 5.875H25.7031V8.8125H16.8906V6.60937ZM16.8906 10.2812H25.7031V13.9531C25.7025 14.0984 25.7457 14.2405 25.8268 14.361C25.908 14.4814 26.0235 14.5747 26.1584 14.6287C26.2921 14.685 26.4395 14.7004 26.582 14.6729C26.7245 14.6455 26.8556 14.5764 26.9589 14.4745L29.375 12.0511L31.7911 14.4745C31.93 14.6115 32.1174 14.6881 32.3125 14.6875C32.4088 14.69 32.5044 14.6699 32.5915 14.6287C32.7264 14.5747 32.8419 14.4814 32.9231 14.361C33.0043 14.2405 33.0474 14.0984 33.0468 13.9531V10.2812H41.8593V26.812C41.624 26.8319 41.3921 26.8813 41.169 26.9589L38.5693 27.9062H33.4067C33.0192 27.5754 32.55 27.3548 32.0481 27.2673L24.6676 25.9675C22.283 25.5457 19.8325 25.6916 17.5148 26.3934L17.3826 26.4375C17.2137 26.4816 17.0522 26.5477 16.8906 26.6064V10.2812ZM9.83325 44.2461L3.09903 34.6184L9.11356 30.4031L15.8478 40.0308L9.83325 44.2461ZM43.6218 29.9772C43.5765 30.2312 43.4651 30.4687 43.2988 30.666C43.1325 30.8632 42.9172 31.0132 42.6745 31.1008L27.6418 36.5719C26.3073 37.0567 24.8685 37.1808 23.4706 36.9317L22.1561 36.7114C20.0847 36.3385 17.9498 36.7976 16.215 37.9892L11.5811 31.3652L13.887 29.7569C15.0767 28.9166 16.3932 28.272 17.7865 27.8475L17.9187 27.8108C20.0241 27.1721 22.2496 27.0338 24.4179 27.4069L31.7911 28.7067C32.1766 28.7777 32.5191 28.9964 32.7457 29.3162C32.8743 29.5052 32.9572 29.7214 32.9881 29.9478C33.0257 30.1534 33.0131 30.365 32.9514 30.5647C32.8501 30.916 32.622 31.2172 32.3113 31.4098C32.0005 31.6025 31.6294 31.6729 31.2697 31.6075L23.3311 30.2048L23.0814 31.6442L31.0126 33.0469C31.1842 33.0821 31.3589 33.0994 31.534 33.0983C32.1663 33.0977 32.7817 32.894 33.2894 32.5171C33.7971 32.1403 34.1703 31.6103 34.354 31.0053L41.6684 28.3395C42.0346 28.2073 42.4383 28.2258 42.7908 28.391C43.1433 28.5563 43.4158 28.8547 43.5484 29.2208C43.6424 29.4613 43.6678 29.7231 43.6218 29.9772Z" fill="#FFC582"/>
</svg>
